<svg xmlns="http://www.w3.org/2000/svg" viewBox="0 0 24 24">
  <path fill="#3ed0f9"
     d="M 14.133,18 H 7.875 C 6.84075,18 6,17.15925 6,16.125 6,15.09075 6.84075,14.25 7.875,14.25 h 5.25 c 1.4475,0 2.625,-1.1775 2.625,-2.625 C 15.75,10.1775 14.5725,9 13.125,9 H 9.47925 a 7.359,7.359 0 0 1 -1.0155,1.5 H 13.125 c 0.62025,0 1.125,0.50475 1.125,1.125 0,0.62025 -0.50475,1.125 -1.125,1.125 h -5.25 c -1.86075,0 -3.375,1.51425 -3.375,3.375 0,1.86075 1.51425,3.375 3.375,3.375 h 7.19475 A 7.81125,7.81125 0 0 1 14.133,18 Z M 6.75,4.5 C 5.5095,4.5 4.5,5.5095 4.5,6.75 4.5,9.141 6.75,10.5 6.75,10.5 6.75,10.5 9,9.14025 9,6.75 9,5.5095 7.9905,4.5 6.75,4.5 Z m 0,3.375 A 1.1253751,1.1253751 0 1 1 6.75075,5.62425 1.1253751,1.1253751 0 0 1 6.75,7.875 Z" />
  <path fill="#3ed0f9"
     d="m 17.25,13.5 c -1.2405,0 -2.25,1.0095 -2.25,2.25 0,2.391 2.25,3.75 2.25,3.75 0,0 2.25,-1.35975 2.25,-3.75 0,-1.2405 -1.0095,-2.25 -2.25,-2.25 z m 0,3.375 A 1.1253751,1.1253751 0 1 1 17.25075,14.62425 1.1253751,1.1253751 0 0 1 17.25,16.875 Z" />
</svg>
