<?xml version="1.0" encoding="UTF-8" standalone="no"?>
<!-- Created with Inkscape (http://www.inkscape.org/) -->

<svg
   xmlns:dc="http://purl.org/dc/elements/1.1/"
   xmlns:cc="http://creativecommons.org/ns#"
   xmlns:rdf="http://www.w3.org/1999/02/22-rdf-syntax-ns#"
   xmlns:svg="http://www.w3.org/2000/svg"
   xmlns="http://www.w3.org/2000/svg"
   xmlns:sodipodi="http://sodipodi.sourceforge.net/DTD/sodipodi-0.dtd"
   xmlns:inkscape="http://www.inkscape.org/namespaces/inkscape"
   width="61mm"
   height="61mm"
   viewBox="0 0 61 61"
   version="1.1"
   id="svg833"
   inkscape:version="0.92.2 (5c3e80d, 2017-08-06)"
   sodipodi:docname="11.svg">
  <defs
     id="defs827" />
  <sodipodi:namedview
     id="base"
     pagecolor="#ffffff"
     bordercolor="#666666"
     borderopacity="1.0"
     inkscape:pageopacity="0.0"
     inkscape:pageshadow="2"
     inkscape:zoom="1.979899"
     inkscape:cx="51.058986"
     inkscape:cy="102.13309"
     inkscape:document-units="mm"
     inkscape:current-layer="layer1"
     showgrid="false"
     inkscape:window-width="1920"
     inkscape:window-height="1057"
     inkscape:window-x="-8"
     inkscape:window-y="-8"
     inkscape:window-maximized="1" />
  <metadata
     id="metadata830">
    <rdf:RDF>
      <cc:Work
         rdf:about="">
        <dc:format>image/svg+xml</dc:format>
        <dc:type
           rdf:resource="http://purl.org/dc/dcmitype/StillImage" />
        <dc:title></dc:title>
      </cc:Work>
    </rdf:RDF>
  </metadata>
  <g
     inkscape:label="Layer 1"
     inkscape:groupmode="layer"
     id="layer1"
     transform="translate(0,-236)">
    <circle
       style="opacity:1;fill:#dc0a14;fill-opacity:1;fill-rule:nonzero;stroke:none;stroke-width:0.18410923;stroke-linecap:square;stroke-linejoin:round;stroke-miterlimit:4;stroke-dasharray:none;stroke-opacity:1;paint-order:stroke fill markers"
       id="path17"
       cx="30.500002"
       cy="266.5"
       r="30.000002" />
    <circle
       r="24"
       cy="266.5"
       cx="30.500002"
       id="circle1748"
       style="opacity:1;fill:#ffffff;fill-opacity:1;fill-rule:nonzero;stroke:none;stroke-width:0.14728737;stroke-linecap:square;stroke-linejoin:round;stroke-miterlimit:4;stroke-dasharray:none;stroke-opacity:1;paint-order:stroke fill markers" />
    <path
       inkscape:connector-curvature="0"
       style="clip-rule:evenodd;fill:#000000;fill-opacity:1;fill-rule:nonzero;stroke:none;stroke-width:0.1;image-rendering:optimizeQuality;shape-rendering:geometricPrecision;text-rendering:geometricPrecision"
       class="fil2"
       d="m 16.369613,253.8726 v 25.2548 h -3.606 v -19.2805 h -2.10931 v -2.14722 l 2.10931,-3.82705 h 3.606 z m 8.9045,10.5086 h 1.50304 c 0.61889,0.0126 1.16201,-0.17679 1.62934,-0.57469 0.56836,-0.49258 0.85257,-1.12409 0.85257,-1.88826 v -2.60822 c 0,-0.70101 -0.22734,-1.28832 -0.68834,-1.75566 -0.51787,-0.54312 -1.13048,-0.81465 -1.83143,-0.81465 -0.87786,0 -1.57881,0.38523 -2.11565,1.14939 -0.2842,0.40418 -0.42314,0.8778 -0.42314,1.42092 v 1.05465 h -3.58704 v -0.61255 c 0,-1.3452 0.34731,-2.51983 1.0357,-3.53028 0.55573,-0.81465 1.2504,-1.45884 2.09034,-1.92612 0.92834,-0.5305 1.91984,-0.79574 2.98083,-0.79574 1.43354,0 2.71558,0.44838 3.85229,1.35148 1.52833,1.21882 2.29249,2.85451 2.29249,4.90066 v 2.16612 c 0,0.9031 -0.23367,1.77462 -0.70101,2.60822 -0.35998,0.6189 -0.83994,1.14305 -1.44621,1.57881 0.63785,0.31579 1.19359,0.80837 1.66092,1.45884 0.56836,0.83994 0.85257,1.79352 0.85257,2.86713 v 2.70296 c 0,1.47774 -0.5305,2.82922 -1.59143,4.05438 -1.3199,1.54095 -2.98717,2.3114 -5.01436,2.3114 -2.03353,0 -3.71335,-0.84623 -5.04593,-2.53873 -0.89042,-1.13043 -1.33252,-2.41247 -1.33252,-3.82705 v -1.1873 h 3.60606 v 1.1873 c 0,1.03569 0.35364,1.85668 1.05465,2.45661 0.51782,0.43576 1.12409,0.65047 1.81248,0.65047 1.14939,0 1.98299,-0.49891 2.50086,-1.49669 0.27153,-0.52421 0.40419,-1.06099 0.40419,-1.61039 v -2.62718 c 0,-0.71363 -0.23367,-1.34514 -0.70101,-1.88826 -0.56841,-0.65047 -1.29466,-0.97887 -2.18508,-0.97887 h -1.46518 z m 12.08109,8.55092 v -12.8453 c 0,-1.34514 0.33469,-2.5261 0.99779,-3.54918 0.60626,-0.92834 1.42726,-1.66721 2.46294,-2.223 0.99785,-0.54311 2.03988,-0.81464 3.12611,-0.81464 1.61671,0 3.03764,0.53677 4.25647,1.61039 1.43358,1.26936 2.14722,2.93028 2.14722,4.97643 v 12.8453 c 0,1.52827 -0.42314,2.86079 -1.2757,3.99756 -1.28198,1.71141 -3.03131,2.57031 -5.23535,2.57031 -1.97671,0 -3.61234,-0.73259 -4.907,-2.20404 -1.04831,-1.19359 -1.57248,-2.65242 -1.57248,-4.36383 z m 9.38448,0 v -13.2305 c 0,-0.77678 -0.28416,-1.47779 -0.85257,-2.09035 -0.51782,-0.56841 -1.18091,-0.85256 -1.98299,-0.85256 -1.07356,0 -1.90721,0.44204 -2.50081,1.33252 -0.29683,0.44204 -0.4421,0.97888 -0.4421,1.61039 v 13.5968 c 0,0.64414 0.20842,1.23151 0.63151,1.77462 0.58104,0.77673 1.3452,1.16829 2.2925,1.16829 1.02936,0 1.81248,-0.43576 2.35559,-1.31356 0.33469,-0.51787 0.49887,-1.1873 0.49887,-1.99561 z"
       id="path11" />
  </g>
</svg>
