<?xml version="1.0" encoding="UTF-8"?>
<!DOCTYPE svg PUBLIC "-//W3C//DTD SVG 1.1//EN" "http://www.w3.org/Graphics/SVG/1.1/DTD/svg11.dtd">
<svg xmlns="http://www.w3.org/2000/svg" xml:space="preserve" width="600mm" height="600mm" style="shape-rendering:geometricPrecision; text-rendering:geometricPrecision; image-rendering:optimizeQuality; fill-rule:evenodd; clip-rule:evenodd"
viewBox="0 0 600 600">
 <defs>
  <style type="text/css">
   <![CDATA[
    .fil0 {fill:red}
    .fil1 {fill:white}
    .fil2 {fill:black;fill-rule:nonzero}
   ]]>
  </style>
 </defs>
 <g id="Layer_x0020_1">
  <metadata id="CorelCorpID_0Corel-Layer"/>
  <ellipse class="fil0" cx="300" cy="300" rx="300" ry="300"/>
  <ellipse class="fil1" cx="300" cy="300" rx="240" ry="240"/>
  <path class="fil2" d="M241.695 170l0 256.22 -36.5843 0 0 -195.608 -21.3998 0 0 -21.7844 21.3998 -38.827 36.5843 0zm85.4703 33.0608l0 60.2266c10.6361,-4.9974 20.6309,-7.4961 30.0493,-7.4961 13.1986,0 25.1799,3.8439 35.816,11.4687 15.505,10.9559 23.2577,27.1659 23.2577,48.5656l0 46.7715c0,16.7227 -4.3572,30.6263 -13.1348,41.6465 -7.3681,9.1618 -16.4661,16.0814 -27.2302,20.6947 -8.1369,3.3961 -16.4661,5.0617 -25.1157,5.0617 -15.1208,0 -28.8321,-4.805 -41.1333,-14.48 -16.7226,-13.0063 -25.1161,-30.6901 -25.1161,-52.9229l0 -9.4184 36.5848 0 0 9.4184c0,8.5858 1.7299,15.8258 5.2535,21.592 5.126,8.5216 13.3266,12.7502 24.6035,12.7502 9.7387,0 17.4915,-3.5879 23.2577,-10.6999 3.6521,-4.6127 5.4458,-10.5075 5.4458,-17.6832l0 -52.7306c0,-7.6247 -2.8191,-14.0316 -8.4573,-19.2857 -5.7662,-5.2535 -12.6858,-7.8802 -20.8232,-7.8802 -10.6356,0 -18.3883,3.7802 -23.2577,11.4043l-36.5843 0 0 -130.064 120.646 0 0 33.0608 -84.0613 0z"/>
 </g>
</svg>
