<?xml version="1.0" encoding="UTF-8" standalone="no"?>
<!-- Created with Inkscape (http://www.inkscape.org/) -->

<svg
   xmlns:dc="http://purl.org/dc/elements/1.1/"
   xmlns:cc="http://creativecommons.org/ns#"
   xmlns:rdf="http://www.w3.org/1999/02/22-rdf-syntax-ns#"
   xmlns:svg="http://www.w3.org/2000/svg"
   xmlns="http://www.w3.org/2000/svg"
   xmlns:sodipodi="http://sodipodi.sourceforge.net/DTD/sodipodi-0.dtd"
   xmlns:inkscape="http://www.inkscape.org/namespaces/inkscape"
   width="61mm"
   height="61mm"
   viewBox="0 0 61 61"
   version="1.1"
   id="svg833"
   inkscape:version="0.92.2 (5c3e80d, 2017-08-06)"
   sodipodi:docname="11.svg">
  <defs
     id="defs827" />
  <sodipodi:namedview
     id="base"
     pagecolor="#ffffff"
     bordercolor="#666666"
     borderopacity="1.0"
     inkscape:pageopacity="0.0"
     inkscape:pageshadow="2"
     inkscape:zoom="1.979899"
     inkscape:cx="146.64711"
     inkscape:cy="90.880256"
     inkscape:document-units="mm"
     inkscape:current-layer="layer1"
     showgrid="false"
     inkscape:window-width="1920"
     inkscape:window-height="1057"
     inkscape:window-x="-8"
     inkscape:window-y="-8"
     inkscape:window-maximized="1" />
  <metadata
     id="metadata830">
    <rdf:RDF>
      <cc:Work
         rdf:about="">
        <dc:format>image/svg+xml</dc:format>
        <dc:type
           rdf:resource="http://purl.org/dc/dcmitype/StillImage" />
        <dc:title></dc:title>
      </cc:Work>
    </rdf:RDF>
  </metadata>
  <g
     inkscape:label="Layer 1"
     inkscape:groupmode="layer"
     id="layer1"
     transform="translate(0,-236)">
    <circle
       style="opacity:1;fill:#dc0a14;fill-opacity:1;fill-rule:nonzero;stroke:none;stroke-width:0.18410923;stroke-linecap:square;stroke-linejoin:round;stroke-miterlimit:4;stroke-dasharray:none;stroke-opacity:1;paint-order:stroke fill markers"
       id="path17"
       cx="30.500002"
       cy="266.5"
       r="30.000002" />
    <circle
       r="24"
       cy="266.5"
       cx="30.500002"
       id="circle1748"
       style="opacity:1;fill:#ffffff;fill-opacity:1;fill-rule:nonzero;stroke:none;stroke-width:0.14728737;stroke-linecap:square;stroke-linejoin:round;stroke-miterlimit:4;stroke-dasharray:none;stroke-opacity:1;paint-order:stroke fill markers" />
    <path
       inkscape:connector-curvature="0"
       style="clip-rule:evenodd;fill:#000000;fill-rule:nonzero;stroke:none;stroke-width:0.1;image-rendering:optimizeQuality;shape-rendering:geometricPrecision;text-rendering:geometricPrecision;fill-opacity:1"
       class="fil2"
       d="m 20.035592,275.86871 h 8.513 v 3.25869 h -12.6179 v -3.25869 l 8.24775,-14.784 c 0.29682,-0.51787 0.44204,-1.07361 0.44204,-1.67988 0,-0.60627 -0.16417,-1.13677 -0.49886,-1.59143 -0.5305,-0.70101 -1.25046,-1.05465 -2.16618,-1.05465 -0.72625,0 -1.33252,0.24629 -1.81248,0.73887 -0.65047,0.6568 -0.97888,1.46517 -0.97888,2.42508 v 0.47996 h -3.606 v -0.47996 c 0,-1.42097 0.41681,-2.69033 1.25675,-3.81442 0.58097,-0.77679 1.31356,-1.40202 2.20404,-1.86936 0.93467,-0.49258 1.9135,-0.73887 2.92395,-0.73887 1.24412,0 2.39351,0.35999 3.44182,1.07361 0.9473,0.63785 1.66727,1.48408 2.15985,2.53239 0.42314,0.87786 0.63151,1.79986 0.63151,2.77874 0,1.09885 -0.29683,2.16612 -0.89042,3.20187 l -7.24998,12.7821 z m 12.4159,-2.93658 v -12.8453 c 0,-1.34514 0.33469,-2.52611 0.99778,-3.54918 0.60628,-0.92834 1.42726,-1.66721 2.46295,-2.223 0.99784,-0.54312 2.03987,-0.81465 3.1261,-0.81465 1.61673,0 3.03764,0.53678 4.25647,1.61039 1.43359,1.26937 2.14722,2.93029 2.14722,4.97644 v 12.8453 c 0,1.52828 -0.42314,2.8608 -1.2757,3.99757 -1.28198,1.7114 -3.03131,2.5703 -5.23535,2.5703 -1.9767,0 -3.61233,-0.73258 -4.90699,-2.20404 -1.04832,-1.19358 -1.57248,-2.65242 -1.57248,-4.36383 z m 9.38447,0 v -13.2305 c 0,-0.77679 -0.28415,-1.4778 -0.85256,-2.09035 -0.51782,-0.56841 -1.18092,-0.85256 -1.983,-0.85256 -1.07355,0 -1.90721,0.44204 -2.50081,1.33252 -0.29682,0.44204 -0.4421,0.97887 -0.4421,1.61039 v 13.5968 c 0,0.64413 0.20843,1.2315 0.63152,1.77462 0.58103,0.77673 1.34519,1.16829 2.29249,1.16829 1.02936,0 1.81248,-0.43576 2.35559,-1.31356 0.33469,-0.51788 0.49887,-1.18731 0.49887,-1.99562 z"
       id="path11" />
  </g>
</svg>
