<?xml version="1.0" encoding="UTF-8"?>
<!DOCTYPE svg PUBLIC "-//W3C//DTD SVG 1.1//EN" "http://www.w3.org/Graphics/SVG/1.1/DTD/svg11.dtd">
<svg xmlns="http://www.w3.org/2000/svg" xml:space="preserve" width="600mm" height="600mm" style="shape-rendering:geometricPrecision; text-rendering:geometricPrecision; image-rendering:optimizeQuality; fill-rule:evenodd; clip-rule:evenodd"
viewBox="0 0 600 600">
 <defs>
  <style type="text/css">
   <![CDATA[
    .fil0 {fill:red}
    .fil1 {fill:white}
    .fil2 {fill:black;fill-rule:nonzero}
   ]]>
  </style>
 </defs>
 <g id="Layer_x0020_1">
  <metadata id="CorelCorpID_0Corel-Layer"/>
  <ellipse class="fil0" cx="300" cy="300" rx="300" ry="300"/>
  <ellipse class="fil1" cx="300" cy="300" rx="240" ry="240"/>
  <path class="fil2" d="M197.598 393.687l85.13 0 0 32.5869 -126.179 0 0 -32.5869 82.4775 -147.84c2.9683,-5.1787 4.4205,-10.7361 4.4205,-16.7988 0,-6.0627 -1.6418,-11.3677 -4.9887,-15.9143 -5.3049,-7.0101 -12.5046,-10.5465 -21.6617,-10.5465 -7.2625,0 -13.3252,2.4629 -18.1248,7.3887 -6.5047,6.568 -9.7888,14.6517 -9.7888,24.2508l0 4.7996 -36.06 0 0 -4.7996c0,-14.2097 4.168,-26.9033 12.5674,-38.1442 5.8098,-7.7679 13.1357,-14.0202 22.0404,-18.6936 9.3468,-4.9258 19.135,-7.3887 29.2396,-7.3887 12.4412,0 23.9351,3.5999 34.4182,10.7361 9.473,6.3785 16.6726,14.8408 21.5984,25.3239 4.2314,8.7786 6.3152,17.9986 6.3152,27.7874 0,10.9885 -2.9683,21.6612 -8.9043,32.0187l-72.4997 127.821zm161.734 -187.374l0 59.3636c10.4837,-4.9258 20.3352,-7.3887 29.6186,-7.3887 13.0095,0 24.8191,3.7888 35.3028,11.3043 15.2828,10.7989 22.9244,26.7766 22.9244,47.8696l0 46.1012c0,16.4831 -4.2948,30.1874 -12.9466,41.0498 -7.2625,9.0304 -16.2301,15.8509 -26.84,20.3981 -8.0202,3.3474 -16.2301,4.9891 -24.7557,4.9891 -14.9041,0 -28.4189,-4.7362 -40.5438,-14.2725 -16.4831,-12.8199 -24.7563,-30.2503 -24.7563,-52.1645l0 -9.2834 36.0606 0 0 9.2834c0,8.4628 1.7051,15.5991 5.1782,21.2827 5.0525,8.3994 13.1356,12.5674 24.2509,12.5674 9.5992,0 17.2408,-3.5365 22.9244,-10.5465 3.5998,-4.5467 5.3678,-10.357 5.3678,-17.4299l0 -51.9749c0,-7.5154 -2.7787,-13.8305 -8.3361,-19.0093 -5.6836,-5.1782 -12.5041,-7.7673 -20.5248,-7.7673 -10.4832,0 -18.1248,3.7261 -22.9244,11.241l-36.06 0 0 -128.2 118.917 0 0 32.5869 -82.8566 0z"/>
 </g>
</svg>
