<?xml version="1.0" encoding="UTF-8" standalone="no"?>
<!-- Created with Inkscape (http://www.inkscape.org/) -->

<svg
   xmlns:dc="http://purl.org/dc/elements/1.1/"
   xmlns:cc="http://creativecommons.org/ns#"
   xmlns:rdf="http://www.w3.org/1999/02/22-rdf-syntax-ns#"
   xmlns:svg="http://www.w3.org/2000/svg"
   xmlns="http://www.w3.org/2000/svg"
   xmlns:sodipodi="http://sodipodi.sourceforge.net/DTD/sodipodi-0.dtd"
   xmlns:inkscape="http://www.inkscape.org/namespaces/inkscape"
   width="61mm"
   height="61mm"
   viewBox="0 0 61 61"
   version="1.1"
   id="svg833"
   inkscape:version="0.92.2 (5c3e80d, 2017-08-06)"
   sodipodi:docname="11.svg">
  <defs
     id="defs827" />
  <sodipodi:namedview
     id="base"
     pagecolor="#ffffff"
     bordercolor="#666666"
     borderopacity="1.0"
     inkscape:pageopacity="0.0"
     inkscape:pageshadow="2"
     inkscape:zoom="1.979899"
     inkscape:cx="167.23704"
     inkscape:cy="90.711296"
     inkscape:document-units="mm"
     inkscape:current-layer="layer1"
     showgrid="false"
     inkscape:window-width="1920"
     inkscape:window-height="1057"
     inkscape:window-x="-8"
     inkscape:window-y="-8"
     inkscape:window-maximized="1" />
  <metadata
     id="metadata830">
    <rdf:RDF>
      <cc:Work
         rdf:about="">
        <dc:format>image/svg+xml</dc:format>
        <dc:type
           rdf:resource="http://purl.org/dc/dcmitype/StillImage" />
        <dc:title></dc:title>
      </cc:Work>
    </rdf:RDF>
  </metadata>
  <g
     inkscape:label="Layer 1"
     inkscape:groupmode="layer"
     id="layer1"
     transform="translate(0,-236)">
    <circle
       style="opacity:1;fill:#dc0a14;fill-opacity:1;fill-rule:nonzero;stroke:none;stroke-width:0.18410923;stroke-linecap:square;stroke-linejoin:round;stroke-miterlimit:4;stroke-dasharray:none;stroke-opacity:1;paint-order:stroke fill markers"
       id="path17"
       cx="30.500002"
       cy="266.5"
       r="30.000002" />
    <circle
       r="24"
       cy="266.5"
       cx="30.500002"
       id="circle1748"
       style="opacity:1;fill:#ffffff;fill-opacity:1;fill-rule:nonzero;stroke:none;stroke-width:0.14728737;stroke-linecap:square;stroke-linejoin:round;stroke-miterlimit:4;stroke-dasharray:none;stroke-opacity:1;paint-order:stroke fill markers" />
    <path
       inkscape:connector-curvature="0"
       style="clip-rule:evenodd;fill:#000000;fill-opacity:1;fill-rule:nonzero;stroke:none;stroke-width:0.1;image-rendering:optimizeQuality;shape-rendering:geometricPrecision;text-rendering:geometricPrecision"
       class="fil2"
       d="m 20.477709,264.38121 h 1.50303 c 0.6189,0.0126 1.16201,-0.1768 1.62935,-0.5747 0.56836,-0.49257 0.85256,-1.12409 0.85256,-1.88825 v -2.60822 c 0,-0.70101 -0.22733,-1.28833 -0.68833,-1.75566 -0.51787,-0.54312 -1.13048,-0.81465 -1.83144,-0.81465 -0.87785,0 -1.57881,0.38522 -2.11564,1.14939 -0.2842,0.40418 -0.42314,0.8778 -0.42314,1.42092 v 1.05465 h -3.58704 v -0.61256 c 0,-1.34519 0.34731,-2.51982 1.03569,-3.53028 0.55574,-0.81464 1.25041,-1.45883 2.09035,-1.92611 0.92834,-0.5305 1.91984,-0.79575 2.98082,-0.79575 1.43354,0 2.71558,0.44838 3.8523,1.35148 1.52832,1.21883 2.29249,2.85451 2.29249,4.90066 v 2.16613 c 0,0.9031 -0.23367,1.77462 -0.70101,2.60822 -0.35998,0.61889 -0.83994,1.14305 -1.44621,1.57881 0.63785,0.31578 1.19358,0.80836 1.66092,1.45883 0.56836,0.83995 0.85256,1.79353 0.85256,2.86714 v 2.70295 c 0,1.47774 -0.53049,2.82922 -1.59143,4.05439 -1.3199,1.54095 -2.98716,2.31139 -5.01435,2.31139 -2.03353,0 -3.71336,-0.84622 -5.04593,-2.53872 -0.89042,-1.13044 -1.33252,-2.41247 -1.33252,-3.82706 v -1.1873 h 3.60605 v 1.1873 c 0,1.0357 0.35365,1.85668 1.05466,2.45662 0.51782,0.43576 1.12409,0.65047 1.81247,0.65047 1.14939,0 1.983,-0.49892 2.50087,-1.4967 0.27153,-0.52421 0.40418,-1.06099 0.40418,-1.61039 v -2.62718 c 0,-0.71362 -0.23367,-1.34514 -0.701,-1.88825 -0.56842,-0.65047 -1.29466,-0.97888 -2.18509,-0.97888 h -1.46517 z m 12.0811,8.55091 v -12.8453 c 0,-1.34514 0.33469,-2.52611 0.99778,-3.54918 0.60627,-0.92834 1.42725,-1.66721 2.46295,-2.223 0.99783,-0.54312 2.03986,-0.81465 3.1261,-0.81465 1.61672,0 3.03764,0.53678 4.25647,1.61039 1.43359,1.26937 2.14722,2.93029 2.14722,4.97644 v 12.8453 c 0,1.52828 -0.42314,2.8608 -1.2757,3.99757 -1.28199,1.7114 -3.03131,2.5703 -5.23535,2.5703 -1.97671,0 -3.61234,-0.73258 -4.907,-2.20404 -1.04831,-1.19358 -1.57247,-2.65242 -1.57247,-4.36383 z m 9.38446,0 v -13.2305 c 0,-0.77679 -0.28415,-1.4778 -0.85256,-2.09035 -0.51782,-0.56841 -1.18091,-0.85256 -1.98299,-0.85256 -1.07356,0 -1.90721,0.44204 -2.50081,1.33252 -0.29683,0.44204 -0.4421,0.97887 -0.4421,1.61039 v 13.5968 c 0,0.64413 0.20843,1.2315 0.63151,1.77462 0.58103,0.77673 1.3452,1.16829 2.2925,1.16829 1.02935,0 1.81248,-0.43576 2.35559,-1.31356 0.33469,-0.51788 0.49886,-1.18731 0.49886,-1.99562 z"
       id="path11" />
  </g>
</svg>
