<?xml version="1.0" encoding="UTF-8"?>
<!DOCTYPE svg PUBLIC "-//W3C//DTD SVG 1.1//EN" "http://www.w3.org/Graphics/SVG/1.1/DTD/svg11.dtd">
<svg xmlns="http://www.w3.org/2000/svg" xml:space="preserve" width="600mm" height="600mm" style="shape-rendering:geometricPrecision; text-rendering:geometricPrecision; image-rendering:optimizeQuality; fill-rule:evenodd; clip-rule:evenodd"
viewBox="0 0 600 600">
 <defs>
  <style type="text/css">
   <![CDATA[
    .fil0 {fill:red}
    .fil1 {fill:white}
    .fil2 {fill:black;fill-rule:nonzero}
   ]]>
  </style>
 </defs>
 <g id="Layer_x0020_1">
  <metadata id="CorelCorpID_0Corel-Layer"/>
  <ellipse class="fil0" cx="300" cy="300" rx="300" ry="300"/>
  <ellipse class="fil1" cx="300" cy="300" rx="240" ry="240"/>
  <path class="fil2" d="M202.018 278.812l15.0303 0c6.1889,0.1262 11.6201,-1.768 16.2935,-5.747 5.6835,-4.9257 8.5256,-11.2409 8.5256,-18.8825l0 -26.0822c0,-7.0101 -2.2733,-12.8833 -6.8833,-17.5566 -5.1788,-5.4312 -11.3049,-8.1465 -18.3144,-8.1465 -8.7786,0 -15.7881,3.8522 -21.1564,11.4939 -2.8421,4.0418 -4.2314,8.778 -4.2314,14.2092l0 10.5465 -35.8705 0 0 -6.1256c0,-13.4519 3.4731,-25.1982 10.357,-35.3028 5.5574,-8.1464 12.5041,-14.5883 20.9035,-19.2611 9.2834,-5.305 19.1983,-7.9575 29.8082,-7.9575 14.3354,0 27.1558,4.4838 38.5229,13.5148 15.2833,12.1883 22.9249,28.5451 22.9249,49.0066l0 21.6613c0,9.031 -2.3366,17.7462 -7.01,26.0822 -3.5998,6.1889 -8.3994,11.4305 -14.4622,15.7881 6.3785,3.1578 11.9359,8.0836 16.6093,14.5883 5.6836,8.3995 8.5256,17.9353 8.5256,28.6714l0 27.0295c0,14.7774 -5.3049,28.2922 -15.9143,40.5439 -13.199,15.4095 -29.8716,23.1139 -50.1435,23.1139 -20.3353,0 -37.1336,-8.4622 -50.4593,-25.3872 -8.9043,-11.3044 -13.3252,-24.1247 -13.3252,-38.2706l0 -11.873 36.0605 0 0 11.873c0,10.357 3.5365,18.5668 10.5465,24.5662 5.1782,4.3576 11.241,6.5047 18.1248,6.5047 11.4939,0 19.8299,-4.9892 25.0087,-14.967 2.7153,-5.2421 4.0418,-10.6099 4.0418,-16.1039l0 -26.2718c0,-7.1362 -2.3367,-13.4514 -7.0101,-18.8825 -5.6841,-6.5047 -12.9466,-9.7888 -21.8508,-9.7888l-14.6517 0 0 -32.5869zm158.387 -72.4992l0 59.3636c10.4837,-4.9258 20.3353,-7.3887 29.6187,-7.3887 13.0094,0 24.8191,3.7888 35.3028,11.3043 15.2827,10.7989 22.9243,26.7766 22.9243,47.8696l0 46.1012c0,16.4831 -4.2947,30.1874 -12.9465,41.0498 -7.2625,9.0304 -16.2301,15.8509 -26.84,20.3981 -8.0203,3.3474 -16.2301,4.9891 -24.7557,4.9891 -14.9042,0 -28.419,-4.7362 -40.5439,-14.2725 -16.483,-12.8199 -24.7562,-30.2503 -24.7562,-52.1645l0 -9.2834 36.0605 0 0 9.2834c0,8.4628 1.7052,15.5991 5.1782,21.2827 5.0526,8.3994 13.1357,12.5674 24.2509,12.5674 9.5992,0 17.2409,-3.5365 22.9244,-10.5465 3.5998,-4.5467 5.3678,-10.357 5.3678,-17.4299l0 -51.9749c0,-7.5154 -2.7787,-13.8305 -8.336,-19.0093 -5.6836,-5.1782 -12.5041,-7.7673 -20.5249,-7.7673 -10.4832,0 -18.1248,3.7261 -22.9244,11.241l-36.06 0 0 -128.2 118.917 0 0 32.5869 -82.8567 0z"/>
 </g>
</svg>
