<?xml version="1.0" encoding="UTF-8" standalone="no"?>
<!-- Created with Inkscape (http://www.inkscape.org/) -->

<svg
   xmlns:dc="http://purl.org/dc/elements/1.1/"
   xmlns:cc="http://creativecommons.org/ns#"
   xmlns:rdf="http://www.w3.org/1999/02/22-rdf-syntax-ns#"
   xmlns:svg="http://www.w3.org/2000/svg"
   xmlns="http://www.w3.org/2000/svg"
   xmlns:sodipodi="http://sodipodi.sourceforge.net/DTD/sodipodi-0.dtd"
   xmlns:inkscape="http://www.inkscape.org/namespaces/inkscape"
   width="61mm"
   height="61mm"
   viewBox="0 0 61 61"
   version="1.1"
   id="svg833"
   inkscape:version="0.92.2 (5c3e80d, 2017-08-06)"
   sodipodi:docname="11.svg">
  <defs
     id="defs827" />
  <sodipodi:namedview
     id="base"
     pagecolor="#ffffff"
     bordercolor="#666666"
     borderopacity="1.0"
     inkscape:pageopacity="0.0"
     inkscape:pageshadow="2"
     inkscape:zoom="1.979899"
     inkscape:cx="76.132218"
     inkscape:cy="102.13309"
     inkscape:document-units="mm"
     inkscape:current-layer="layer1"
     showgrid="false"
     inkscape:window-width="1920"
     inkscape:window-height="1057"
     inkscape:window-x="-8"
     inkscape:window-y="-8"
     inkscape:window-maximized="1" />
  <metadata
     id="metadata830">
    <rdf:RDF>
      <cc:Work
         rdf:about="">
        <dc:format>image/svg+xml</dc:format>
        <dc:type
           rdf:resource="http://purl.org/dc/dcmitype/StillImage" />
        <dc:title></dc:title>
      </cc:Work>
    </rdf:RDF>
  </metadata>
  <g
     inkscape:label="Layer 1"
     inkscape:groupmode="layer"
     id="layer1"
     transform="translate(0,-236)">
    <circle
       style="opacity:1;fill:#dc0a14;fill-opacity:1;fill-rule:nonzero;stroke:none;stroke-width:0.18410923;stroke-linecap:square;stroke-linejoin:round;stroke-miterlimit:4;stroke-dasharray:none;stroke-opacity:1;paint-order:stroke fill markers"
       id="path17"
       cx="30.500002"
       cy="266.5"
       r="30.000002" />
    <circle
       r="24"
       cy="266.5"
       cx="30.500002"
       id="circle1748"
       style="opacity:1;fill:#ffffff;fill-opacity:1;fill-rule:nonzero;stroke:none;stroke-width:0.14728737;stroke-linecap:square;stroke-linejoin:round;stroke-miterlimit:4;stroke-dasharray:none;stroke-opacity:1;paint-order:stroke fill markers" />
    <path
       inkscape:connector-curvature="0"
       style="clip-rule:evenodd;fill:#000000;fill-opacity:1;fill-rule:nonzero;stroke:none;stroke-width:0.1;image-rendering:optimizeQuality;shape-rendering:geometricPrecision;text-rendering:geometricPrecision"
       class="fil2"
       d="m 19.05359,265.54961 c 1.19987,-0.64418 2.31135,-0.96625 3.35338,-0.96625 1.54095,0 2.88609,0.4863 4.02914,1.46517 1.33252,1.13043 2.00195,2.63975 2.00195,4.51538 v 2.25458 c 0,1.47779 -0.46734,2.85451 -1.4083,4.13021 -1.24412,1.69879 -2.94291,2.55135 -5.08379,2.55135 -2.26086,0 -4.02286,-0.89676 -5.29851,-2.684 -0.80208,-1.12409 -1.19992,-2.45661 -1.19992,-3.99756 v -12.7253 c 0,-1.62935 0.48629,-3.03136 1.45883,-4.20599 0.63152,-0.76417 1.4083,-1.35777 2.33664,-1.77462 0.87152,-0.41047 1.78724,-0.61256 2.73454,-0.61256 1.55356,0 2.93662,0.49258 4.14911,1.47779 1.18097,0.9915 1.91355,2.17875 2.19776,3.57443 0.0758,0.34736 0.11364,0.8589 0.11364,1.54095 v 0.40418 h -3.606 v -0.79574 c 0,-0.78941 -0.25891,-1.47146 -0.77679,-2.03353 -0.56835,-0.61889 -1.25674,-0.92834 -2.05877,-0.92834 -1.11152,0 -1.95141,0.53049 -2.51982,1.59143 -0.28415,0.51787 -0.42309,1.10519 -0.42309,1.762 v 5.45639 z m 5.77847,7.90039 v -2.88609 c 0,-0.81464 -0.24629,-1.50931 -0.73887,-2.07772 -0.56841,-0.66309 -1.28204,-0.99778 -2.1346,-0.99778 -1.0357,0 -1.83772,0.44838 -2.40613,1.35148 -0.33469,0.53044 -0.49887,1.10513 -0.49887,1.72402 V 273.45 c 0,0.62523 0.20209,1.20621 0.61256,1.73671 0.54311,0.701 1.28198,1.05465 2.223,1.05465 1.0104,0 1.80614,-0.38522 2.38717,-1.14939 0.3726,-0.47996 0.55574,-1.02936 0.55574,-1.64197 z m 7.72993,-0.51782 v -12.8453 c 0,-1.34514 0.33469,-2.52611 0.99778,-3.54918 0.60627,-0.92834 1.42725,-1.66721 2.46295,-2.223 0.99783,-0.54312 2.03986,-0.81465 3.12609,-0.81465 1.61673,0 3.03765,0.53678 4.25648,1.61039 1.43359,1.26937 2.14722,2.93029 2.14722,4.97644 v 12.8453 c 0,1.52828 -0.42314,2.8608 -1.2757,3.99757 -1.28199,1.7114 -3.03131,2.5703 -5.23535,2.5703 -1.97671,0 -3.61234,-0.73258 -4.907,-2.20404 -1.04831,-1.19358 -1.57247,-2.65242 -1.57247,-4.36383 z m 9.38446,0 v -13.2305 c 0,-0.77679 -0.28415,-1.4778 -0.85256,-2.09035 -0.51782,-0.56841 -1.18091,-0.85256 -1.98299,-0.85256 -1.07356,0 -1.90722,0.44204 -2.50081,1.33252 -0.29683,0.44204 -0.4421,0.97887 -0.4421,1.61039 v 13.5968 c 0,0.64413 0.20843,1.2315 0.63151,1.77462 0.58103,0.77673 1.3452,1.16829 2.29249,1.16829 1.02936,0 1.81248,-0.43576 2.3556,-1.31356 0.33469,-0.51788 0.49886,-1.18731 0.49886,-1.99562 z"
       id="path11" />
  </g>
</svg>
